<svg xmlns="http://www.w3.org/2000/svg" version="1.1" xmlns:xlink="http://www.w3.org/1999/xlink" xmlns:svgjs="http://svgjs.dev/svgjs" width="1440" height="560" preserveAspectRatio="none" viewBox="0 0 1440 560">
    <g mask="url(&quot;#SvgjsMask1000&quot;)" fill="none">
        <rect width="1440" height="560" x="0" y="0" fill="#0e2a47"></rect>
        <path d="M0,520.146C132.354,525.232,273.027,669.706,382.123,594.595C492.483,518.615,427.664,338.761,454.21,207.431C473.677,111.122,509.032,23.522,517.347,-74.383C527.914,-198.805,588.476,-344.752,509.308,-441.318C430.524,-537.415,276.015,-505.702,152.508,-519.396C49.835,-530.78,-48.873,-529.521,-151.083,-514.542C-269.282,-497.219,-418.758,-520.558,-490.637,-425.14C-563.367,-328.592,-467.865,-189.385,-486.045,-69.883C-504.46,51.164,-619.912,152.305,-596.777,272.539C-572.689,397.727,-481.456,517.08,-363.705,565.936C-248.509,613.732,-124.626,515.357,0,520.146" fill="#0b2239"></path>
        <path d="M1440 1026.367C1524.598 1011.7139999999999 1578.85 934.162 1646.401 881.1669999999999 1706.879 833.721 1774.319 796.3489999999999 1815.7359999999999 731.593 1861.4279999999999 660.154 1895.208 579.577 1893.525 494.793 1891.724 404.067 1856.468 318.26800000000003 1806.031 242.832 1750.664 160.022 1687.815 69.52499999999998 1591.6970000000001 43.365999999999985 1495.925 17.301000000000045 1394.635 60.43000000000001 1306.992 107.01600000000002 1230.171 147.849 1190.9859999999999 229.613 1128.136 289.768 1056.842 358.005 930.529 387.115 912.894 484.214 895.365 580.726 998.2570000000001 654.288 1046.409 739.7470000000001 1089.828 816.806 1110.391 909.559 1181.891 961.626 1255.077 1014.921 1350.7930000000001 1041.819 1440 1026.367" fill="#113255"></path>
    </g>
    <defs>
        <mask id="SvgjsMask1000">
            <rect width="1440" height="560" fill="#ffffff"></rect>
        </mask>
    </defs>
</svg>